<!-- <svg xmlns="http://www.w3.org/2000/svg" width="24" height="24">
  <path d="M12.6.75h2.454l-5.36 6.142L16 15.25h-4.937l-3.867-5.07-4.425 5.07H.316l5.733-6.57L0 .75h5.063l3.495 4.633L12.601.75Zm-.86 13.028h1.36L4.323 2.145H2.865z"  fill="#FFF" fill-rule="nonzero"/>
</svg> -->
<svg xmlns="http://www.w3.org/2000/svg"  width="24" height="24" viewBox="0 0 24 24">
<path d="M26.37,26l-8.795-12.822l0.015,0.012L25.52,4h-2.65l-6.46,7.48L11.28,4H4.33l8.211,11.971L12.54,15.97L3.88,26h2.65 l7.182-8.322L19.42,26H26.37z M10.23,6l12.34,18h-2.1L8.12,6H10.23z"   fill="#FFF" fill-rule="nonzero"></path>
</svg>
